<svg width="48" height="48" viewBox="0 0 48 48" xmlns="http://www.w3.org/2000/svg">
  <defs>
    <linearGradient id="shipGradient" x1="0%" y1="0%" x2="100%" y2="100%">
      <stop offset="0%" style="stop-color:#4fd1c7;stop-opacity:1" />
      <stop offset="50%" style="stop-color:#2dd4bf;stop-opacity:1" />
      <stop offset="100%" style="stop-color:#0f766e;stop-opacity:1" />
    </linearGradient>
    <linearGradient id="thrusterGradient" x1="0%" y1="0%" x2="0%" y2="100%">
      <stop offset="0%" style="stop-color:#fbbf24;stop-opacity:1" />
      <stop offset="50%" style="stop-color:#f59e0b;stop-opacity:1" />
      <stop offset="100%" style="stop-color:#d97706;stop-opacity:1" />
    </linearGradient>
  </defs>
  
  <!-- Thruster flames -->
  <ellipse cx="24" cy="42" rx="3" ry="6" fill="url(#thrusterGradient)" opacity="0.8"/>
  <ellipse cx="18" cy="38" rx="2" ry="4" fill="url(#thrusterGradient)" opacity="0.6"/>
  <ellipse cx="30" cy="38" rx="2" ry="4" fill="url(#thrusterGradient)" opacity="0.6"/>
  
  <!-- Main ship body -->
  <polygon points="24,4 32,20 28,36 20,36 16,20" fill="url(#shipGradient)" stroke="#065f46" stroke-width="1"/>
  
  <!-- Wings -->
  <polygon points="16,20 8,24 12,32 20,28" fill="url(#shipGradient)" stroke="#065f46" stroke-width="1"/>
  <polygon points="32,20 40,24 36,32 28,28" fill="url(#shipGradient)" stroke="#065f46" stroke-width="1"/>
  
  <!-- Cockpit -->
  <ellipse cx="24" cy="16" rx="4" ry="6" fill="#60a5fa" stroke="#1e40af" stroke-width="1" opacity="0.8"/>
  
  <!-- Engine details -->
  <rect x="20" y="30" width="8" height="6" fill="#374151" stroke="#111827" stroke-width="1"/>
  <circle cx="22" cy="33" r="1.5" fill="#ef4444"/>
  <circle cx="26" cy="33" r="1.5" fill="#ef4444"/>
</svg>